<mxfile host="app.diagrams.net" agent="Mozilla/5.0 (Windows NT 10.0; Win64; x64) AppleWebKit/537.36 (KHTML, like Gecko) Chrome/130.0.0.0 Safari/537.36 OPR/115.0.0.0" version="26.0.8">
  <diagram name="Page-1" id="aSPRXQ2EIW_sh8hxDQCb">
    <mxGraphModel grid="1" page="1" gridSize="10" guides="1" tooltips="1" connect="1" arrows="1" fold="1" pageScale="1" pageWidth="827" pageHeight="1169" math="0" shadow="0">
      <root>
        <mxCell id="0" />
        <mxCell id="1" parent="0" />
        <mxCell id="-Kv3foAz8kiBN0xPjySN-6" style="edgeStyle=orthogonalEdgeStyle;rounded=0;orthogonalLoop=1;jettySize=auto;html=1;entryX=0.5;entryY=0;entryDx=0;entryDy=0;" edge="1" parent="1" source="-Kv3foAz8kiBN0xPjySN-1" target="-Kv3foAz8kiBN0xPjySN-3">
          <mxGeometry relative="1" as="geometry" />
        </mxCell>
        <mxCell id="-Kv3foAz8kiBN0xPjySN-7" style="edgeStyle=orthogonalEdgeStyle;rounded=0;orthogonalLoop=1;jettySize=auto;html=1;exitX=0.5;exitY=1;exitDx=0;exitDy=0;entryX=0.5;entryY=0;entryDx=0;entryDy=0;" edge="1" parent="1" source="-Kv3foAz8kiBN0xPjySN-1" target="-Kv3foAz8kiBN0xPjySN-2">
          <mxGeometry relative="1" as="geometry" />
        </mxCell>
        <mxCell id="-Kv3foAz8kiBN0xPjySN-8" style="edgeStyle=orthogonalEdgeStyle;rounded=0;orthogonalLoop=1;jettySize=auto;html=1;entryX=0.5;entryY=0;entryDx=0;entryDy=0;" edge="1" parent="1" source="-Kv3foAz8kiBN0xPjySN-1" target="-Kv3foAz8kiBN0xPjySN-4">
          <mxGeometry relative="1" as="geometry" />
        </mxCell>
        <mxCell id="-Kv3foAz8kiBN0xPjySN-9" style="edgeStyle=orthogonalEdgeStyle;rounded=0;orthogonalLoop=1;jettySize=auto;html=1;exitX=0.5;exitY=1;exitDx=0;exitDy=0;entryX=0.5;entryY=0;entryDx=0;entryDy=0;" edge="1" parent="1" source="-Kv3foAz8kiBN0xPjySN-1" target="-Kv3foAz8kiBN0xPjySN-5">
          <mxGeometry relative="1" as="geometry" />
        </mxCell>
        <mxCell id="-Kv3foAz8kiBN0xPjySN-1" value="&lt;b&gt;&lt;span class=&quot;hljs-selector-tag&quot;&gt;Main&lt;/span&gt; Program&lt;/b&gt;" style="rounded=0;whiteSpace=wrap;html=1;" vertex="1" parent="1">
          <mxGeometry x="370" y="40" width="150" height="70" as="geometry" />
        </mxCell>
        <mxCell id="-Kv3foAz8kiBN0xPjySN-2" value="Reads &lt;span class=&quot;hljs-selector-tag&quot;&gt;input&lt;/span&gt; file&amp;nbsp;&amp;nbsp;" style="rounded=0;whiteSpace=wrap;html=1;" vertex="1" parent="1">
          <mxGeometry x="90" y="180" width="130" height="70" as="geometry" />
        </mxCell>
        <mxCell id="-Kv3foAz8kiBN0xPjySN-3" value="Creates default database&amp;nbsp;" style="rounded=0;whiteSpace=wrap;html=1;" vertex="1" parent="1">
          <mxGeometry x="274" y="180" width="156" height="70" as="geometry" />
        </mxCell>
        <mxCell id="-Kv3foAz8kiBN0xPjySN-4" value="Executes user commands&amp;nbsp;&amp;nbsp;" style="rounded=0;whiteSpace=wrap;html=1;" vertex="1" parent="1">
          <mxGeometry x="470" y="180" width="130" height="70" as="geometry" />
        </mxCell>
        <mxCell id="-Kv3foAz8kiBN0xPjySN-5" value="&amp;nbsp;Outputs results to screen and file" style="rounded=0;whiteSpace=wrap;html=1;" vertex="1" parent="1">
          <mxGeometry x="640" y="180" width="140" height="70" as="geometry" />
        </mxCell>
        <mxCell id="-Kv3foAz8kiBN0xPjySN-20" style="edgeStyle=orthogonalEdgeStyle;rounded=0;orthogonalLoop=1;jettySize=auto;html=1;entryX=0.5;entryY=0;entryDx=0;entryDy=0;" edge="1" parent="1" source="-Kv3foAz8kiBN0xPjySN-10" target="-Kv3foAz8kiBN0xPjySN-17">
          <mxGeometry relative="1" as="geometry" />
        </mxCell>
        <mxCell id="-Kv3foAz8kiBN0xPjySN-21" style="edgeStyle=orthogonalEdgeStyle;rounded=0;orthogonalLoop=1;jettySize=auto;html=1;exitX=0.5;exitY=1;exitDx=0;exitDy=0;entryX=0.5;entryY=0;entryDx=0;entryDy=0;" edge="1" parent="1" source="-Kv3foAz8kiBN0xPjySN-10" target="-Kv3foAz8kiBN0xPjySN-18">
          <mxGeometry relative="1" as="geometry" />
        </mxCell>
        <mxCell id="-Kv3foAz8kiBN0xPjySN-22" style="edgeStyle=orthogonalEdgeStyle;rounded=0;orthogonalLoop=1;jettySize=auto;html=1;" edge="1" parent="1" source="-Kv3foAz8kiBN0xPjySN-10" target="-Kv3foAz8kiBN0xPjySN-19">
          <mxGeometry relative="1" as="geometry" />
        </mxCell>
        <mxCell id="-Kv3foAz8kiBN0xPjySN-23" style="edgeStyle=orthogonalEdgeStyle;rounded=0;orthogonalLoop=1;jettySize=auto;html=1;entryX=0.5;entryY=0;entryDx=0;entryDy=0;" edge="1" parent="1" source="-Kv3foAz8kiBN0xPjySN-10" target="-Kv3foAz8kiBN0xPjySN-11">
          <mxGeometry relative="1" as="geometry" />
        </mxCell>
        <mxCell id="-Kv3foAz8kiBN0xPjySN-24" style="edgeStyle=orthogonalEdgeStyle;rounded=0;orthogonalLoop=1;jettySize=auto;html=1;exitX=0.5;exitY=1;exitDx=0;exitDy=0;" edge="1" parent="1" source="-Kv3foAz8kiBN0xPjySN-10" target="-Kv3foAz8kiBN0xPjySN-15">
          <mxGeometry relative="1" as="geometry">
            <Array as="points">
              <mxPoint x="445" y="530" />
              <mxPoint x="352" y="530" />
            </Array>
          </mxGeometry>
        </mxCell>
        <mxCell id="-Kv3foAz8kiBN0xPjySN-25" style="edgeStyle=orthogonalEdgeStyle;rounded=0;orthogonalLoop=1;jettySize=auto;html=1;exitX=0.5;exitY=1;exitDx=0;exitDy=0;" edge="1" parent="1" source="-Kv3foAz8kiBN0xPjySN-10" target="-Kv3foAz8kiBN0xPjySN-14">
          <mxGeometry relative="1" as="geometry">
            <Array as="points">
              <mxPoint x="445" y="530" />
              <mxPoint x="530" y="530" />
            </Array>
          </mxGeometry>
        </mxCell>
        <mxCell id="-Kv3foAz8kiBN0xPjySN-26" style="edgeStyle=orthogonalEdgeStyle;rounded=0;orthogonalLoop=1;jettySize=auto;html=1;entryX=0.5;entryY=0;entryDx=0;entryDy=0;" edge="1" parent="1" source="-Kv3foAz8kiBN0xPjySN-10" target="-Kv3foAz8kiBN0xPjySN-16">
          <mxGeometry relative="1" as="geometry">
            <Array as="points">
              <mxPoint x="445" y="530" />
              <mxPoint x="180" y="530" />
            </Array>
          </mxGeometry>
        </mxCell>
        <mxCell id="-Kv3foAz8kiBN0xPjySN-27" style="edgeStyle=orthogonalEdgeStyle;rounded=0;orthogonalLoop=1;jettySize=auto;html=1;exitX=1;exitY=0.5;exitDx=0;exitDy=0;" edge="1" parent="1" source="-Kv3foAz8kiBN0xPjySN-10" target="-Kv3foAz8kiBN0xPjySN-13">
          <mxGeometry relative="1" as="geometry">
            <Array as="points">
              <mxPoint x="445" y="365" />
              <mxPoint x="445" y="530" />
              <mxPoint x="700" y="530" />
            </Array>
          </mxGeometry>
        </mxCell>
        <mxCell id="-Kv3foAz8kiBN0xPjySN-10" value="&lt;b&gt;Database Operation&lt;/b&gt;" style="rounded=0;whiteSpace=wrap;html=1;" vertex="1" parent="1">
          <mxGeometry x="365" y="330" width="160" height="70" as="geometry" />
        </mxCell>
        <mxCell id="-Kv3foAz8kiBN0xPjySN-11" value="&lt;span class=&quot;hljs-built_in&quot;&gt;createDatabase&lt;/span&gt;" style="rounded=0;whiteSpace=wrap;html=1;" vertex="1" parent="1">
          <mxGeometry x="110" y="440" width="140" height="70" as="geometry" />
        </mxCell>
        <mxCell id="-Kv3foAz8kiBN0xPjySN-13" value="&lt;span class=&quot;hljs-built_in&quot;&gt;countRowsInTable&lt;/span&gt;" style="rounded=0;whiteSpace=wrap;html=1;" vertex="1" parent="1">
          <mxGeometry x="630" y="570" width="140" height="70" as="geometry" />
        </mxCell>
        <mxCell id="-Kv3foAz8kiBN0xPjySN-14" value="&lt;span class=&quot;hljs-built_in&quot;&gt;exportTableToCSV&lt;/span&gt;" style="rounded=0;whiteSpace=wrap;html=1;" vertex="1" parent="1">
          <mxGeometry x="460" y="570" width="140" height="70" as="geometry" />
        </mxCell>
        <mxCell id="-Kv3foAz8kiBN0xPjySN-15" value="&lt;span class=&quot;hljs-built_in&quot;&gt;updateTable&lt;/span&gt;" style="rounded=0;whiteSpace=wrap;html=1;" vertex="1" parent="1">
          <mxGeometry x="282" y="570" width="140" height="70" as="geometry" />
        </mxCell>
        <mxCell id="-Kv3foAz8kiBN0xPjySN-16" value="&lt;span class=&quot;hljs-built_in&quot;&gt;deleteFromTable&lt;/span&gt;" style="rounded=0;whiteSpace=wrap;html=1;" vertex="1" parent="1">
          <mxGeometry x="110" y="570" width="140" height="70" as="geometry" />
        </mxCell>
        <mxCell id="-Kv3foAz8kiBN0xPjySN-17" value="&lt;span class=&quot;hljs-built_in&quot;&gt;createTable&lt;/span&gt;" style="rounded=0;whiteSpace=wrap;html=1;" vertex="1" parent="1">
          <mxGeometry x="282" y="440" width="140" height="70" as="geometry" />
        </mxCell>
        <mxCell id="-Kv3foAz8kiBN0xPjySN-18" value="&lt;span class=&quot;hljs-built_in&quot;&gt;insertIntoTable&lt;/span&gt;" style="rounded=0;whiteSpace=wrap;html=1;" vertex="1" parent="1">
          <mxGeometry x="460" y="440" width="140" height="70" as="geometry" />
        </mxCell>
        <mxCell id="-Kv3foAz8kiBN0xPjySN-19" value="&lt;span class=&quot;hljs-built_in&quot;&gt;displayTable&lt;/span&gt;" style="rounded=0;whiteSpace=wrap;html=1;" vertex="1" parent="1">
          <mxGeometry x="630" y="440" width="140" height="70" as="geometry" />
        </mxCell>
        <mxCell id="-Kv3foAz8kiBN0xPjySN-40" style="edgeStyle=orthogonalEdgeStyle;rounded=0;orthogonalLoop=1;jettySize=auto;html=1;" edge="1" parent="1" source="-Kv3foAz8kiBN0xPjySN-28" target="-Kv3foAz8kiBN0xPjySN-31">
          <mxGeometry relative="1" as="geometry">
            <Array as="points">
              <mxPoint x="500" y="780" />
              <mxPoint x="780" y="780" />
            </Array>
          </mxGeometry>
        </mxCell>
        <mxCell id="-Kv3foAz8kiBN0xPjySN-41" style="edgeStyle=orthogonalEdgeStyle;rounded=0;orthogonalLoop=1;jettySize=auto;html=1;exitX=0.5;exitY=1;exitDx=0;exitDy=0;" edge="1" parent="1" source="-Kv3foAz8kiBN0xPjySN-28" target="-Kv3foAz8kiBN0xPjySN-30">
          <mxGeometry relative="1" as="geometry">
            <Array as="points">
              <mxPoint x="500" y="780" />
              <mxPoint x="450" y="780" />
            </Array>
          </mxGeometry>
        </mxCell>
        <mxCell id="-Kv3foAz8kiBN0xPjySN-49" style="edgeStyle=orthogonalEdgeStyle;rounded=0;orthogonalLoop=1;jettySize=auto;html=1;exitX=0.5;exitY=1;exitDx=0;exitDy=0;entryX=0.5;entryY=0;entryDx=0;entryDy=0;" edge="1" parent="1" source="-Kv3foAz8kiBN0xPjySN-28" target="-Kv3foAz8kiBN0xPjySN-29">
          <mxGeometry relative="1" as="geometry">
            <Array as="points">
              <mxPoint x="500" y="780" />
              <mxPoint x="145" y="780" />
            </Array>
          </mxGeometry>
        </mxCell>
        <mxCell id="-Kv3foAz8kiBN0xPjySN-28" value="Structure" style="rounded=0;whiteSpace=wrap;html=1;" vertex="1" parent="1">
          <mxGeometry x="440" y="690" width="120" height="60" as="geometry" />
        </mxCell>
        <mxCell id="-Kv3foAz8kiBN0xPjySN-46" value="" style="edgeStyle=orthogonalEdgeStyle;rounded=0;orthogonalLoop=1;jettySize=auto;html=1;" edge="1" parent="1" source="-Kv3foAz8kiBN0xPjySN-29" target="-Kv3foAz8kiBN0xPjySN-32">
          <mxGeometry relative="1" as="geometry" />
        </mxCell>
        <mxCell id="-Kv3foAz8kiBN0xPjySN-29" value="&amp;nbsp;Database&amp;nbsp;&amp;nbsp;" style="rounded=0;whiteSpace=wrap;html=1;" vertex="1" parent="1">
          <mxGeometry x="85" y="800" width="120" height="60" as="geometry" />
        </mxCell>
        <mxCell id="-Kv3foAz8kiBN0xPjySN-43" value="" style="edgeStyle=orthogonalEdgeStyle;rounded=0;orthogonalLoop=1;jettySize=auto;html=1;" edge="1" parent="1" source="-Kv3foAz8kiBN0xPjySN-30" target="-Kv3foAz8kiBN0xPjySN-34">
          <mxGeometry relative="1" as="geometry" />
        </mxCell>
        <mxCell id="-Kv3foAz8kiBN0xPjySN-44" style="edgeStyle=orthogonalEdgeStyle;rounded=0;orthogonalLoop=1;jettySize=auto;html=1;entryX=0.5;entryY=0;entryDx=0;entryDy=0;" edge="1" parent="1" source="-Kv3foAz8kiBN0xPjySN-30" target="-Kv3foAz8kiBN0xPjySN-35">
          <mxGeometry relative="1" as="geometry">
            <Array as="points">
              <mxPoint x="450" y="880" />
              <mxPoint x="580" y="880" />
            </Array>
          </mxGeometry>
        </mxCell>
        <mxCell id="-Kv3foAz8kiBN0xPjySN-45" style="edgeStyle=orthogonalEdgeStyle;rounded=0;orthogonalLoop=1;jettySize=auto;html=1;entryX=0.5;entryY=0;entryDx=0;entryDy=0;" edge="1" parent="1" source="-Kv3foAz8kiBN0xPjySN-30" target="-Kv3foAz8kiBN0xPjySN-33">
          <mxGeometry relative="1" as="geometry">
            <Array as="points">
              <mxPoint x="450" y="880" />
              <mxPoint x="305" y="880" />
            </Array>
          </mxGeometry>
        </mxCell>
        <mxCell id="-Kv3foAz8kiBN0xPjySN-30" value="Table&amp;nbsp;&amp;nbsp;" style="rounded=0;whiteSpace=wrap;html=1;" vertex="1" parent="1">
          <mxGeometry x="390" y="800" width="120" height="60" as="geometry" />
        </mxCell>
        <mxCell id="-Kv3foAz8kiBN0xPjySN-39" style="edgeStyle=orthogonalEdgeStyle;rounded=0;orthogonalLoop=1;jettySize=auto;html=1;entryX=0.5;entryY=0;entryDx=0;entryDy=0;" edge="1" parent="1" source="-Kv3foAz8kiBN0xPjySN-31" target="-Kv3foAz8kiBN0xPjySN-37">
          <mxGeometry relative="1" as="geometry" />
        </mxCell>
        <mxCell id="-Kv3foAz8kiBN0xPjySN-31" value="Column&amp;nbsp;" style="rounded=0;whiteSpace=wrap;html=1;" vertex="1" parent="1">
          <mxGeometry x="720" y="800" width="120" height="60" as="geometry" />
        </mxCell>
        <mxCell id="-Kv3foAz8kiBN0xPjySN-32" value="+ tables: unordered_map&amp;lt;string, Table&amp;gt;" style="rounded=0;whiteSpace=wrap;html=1;" vertex="1" parent="1">
          <mxGeometry x="70" y="910" width="150" height="60" as="geometry" />
        </mxCell>
        <mxCell id="-Kv3foAz8kiBN0xPjySN-33" value="+ name: string&amp;nbsp;&amp;nbsp;" style="rounded=0;whiteSpace=wrap;html=1;" vertex="1" parent="1">
          <mxGeometry x="245" y="910" width="120" height="60" as="geometry" />
        </mxCell>
        <mxCell id="-Kv3foAz8kiBN0xPjySN-34" value="+ columns: vector&amp;lt;Column&amp;gt;" style="rounded=0;whiteSpace=wrap;html=1;" vertex="1" parent="1">
          <mxGeometry x="390" y="910" width="120" height="60" as="geometry" />
        </mxCell>
        <mxCell id="-Kv3foAz8kiBN0xPjySN-35" value="+ rows: vector&lt;div&gt;&amp;lt;vector&amp;lt;string&amp;gt;&amp;gt;&amp;nbsp;&lt;/div&gt;" style="rounded=0;whiteSpace=wrap;html=1;" vertex="1" parent="1">
          <mxGeometry x="520" y="910" width="120" height="60" as="geometry" />
        </mxCell>
        <mxCell id="-Kv3foAz8kiBN0xPjySN-36" value="+ name: string&amp;nbsp;" style="rounded=0;whiteSpace=wrap;html=1;" vertex="1" parent="1">
          <mxGeometry x="650" y="910" width="120" height="60" as="geometry" />
        </mxCell>
        <mxCell id="-Kv3foAz8kiBN0xPjySN-37" value="+ type: string&amp;nbsp;" style="rounded=0;whiteSpace=wrap;html=1;" vertex="1" parent="1">
          <mxGeometry x="790" y="910" width="120" height="60" as="geometry" />
        </mxCell>
        <mxCell id="-Kv3foAz8kiBN0xPjySN-38" style="edgeStyle=orthogonalEdgeStyle;rounded=0;orthogonalLoop=1;jettySize=auto;html=1;entryX=0.5;entryY=0;entryDx=0;entryDy=0;" edge="1" parent="1" source="-Kv3foAz8kiBN0xPjySN-31" target="-Kv3foAz8kiBN0xPjySN-36">
          <mxGeometry relative="1" as="geometry" />
        </mxCell>
        <mxCell id="-Kv3foAz8kiBN0xPjySN-57" style="edgeStyle=orthogonalEdgeStyle;rounded=0;orthogonalLoop=1;jettySize=auto;html=1;entryX=0.5;entryY=0;entryDx=0;entryDy=0;" edge="1" parent="1" source="-Kv3foAz8kiBN0xPjySN-50" target="-Kv3foAz8kiBN0xPjySN-52">
          <mxGeometry relative="1" as="geometry" />
        </mxCell>
        <mxCell id="-Kv3foAz8kiBN0xPjySN-58" style="edgeStyle=orthogonalEdgeStyle;rounded=0;orthogonalLoop=1;jettySize=auto;html=1;entryX=0.5;entryY=0;entryDx=0;entryDy=0;" edge="1" parent="1" source="-Kv3foAz8kiBN0xPjySN-50" target="-Kv3foAz8kiBN0xPjySN-55">
          <mxGeometry relative="1" as="geometry" />
        </mxCell>
        <mxCell id="-Kv3foAz8kiBN0xPjySN-59" style="edgeStyle=orthogonalEdgeStyle;rounded=0;orthogonalLoop=1;jettySize=auto;html=1;exitX=0.5;exitY=1;exitDx=0;exitDy=0;" edge="1" parent="1" source="-Kv3foAz8kiBN0xPjySN-50" target="-Kv3foAz8kiBN0xPjySN-56">
          <mxGeometry relative="1" as="geometry" />
        </mxCell>
        <mxCell id="-Kv3foAz8kiBN0xPjySN-60" style="edgeStyle=orthogonalEdgeStyle;rounded=0;orthogonalLoop=1;jettySize=auto;html=1;exitX=0.5;exitY=1;exitDx=0;exitDy=0;entryX=0.5;entryY=0;entryDx=0;entryDy=0;" edge="1" parent="1" source="-Kv3foAz8kiBN0xPjySN-50" target="-Kv3foAz8kiBN0xPjySN-51">
          <mxGeometry relative="1" as="geometry" />
        </mxCell>
        <mxCell id="-Kv3foAz8kiBN0xPjySN-61" style="edgeStyle=orthogonalEdgeStyle;rounded=0;orthogonalLoop=1;jettySize=auto;html=1;exitX=0.5;exitY=1;exitDx=0;exitDy=0;entryX=0.5;entryY=0;entryDx=0;entryDy=0;" edge="1" parent="1" source="-Kv3foAz8kiBN0xPjySN-50" target="-Kv3foAz8kiBN0xPjySN-53">
          <mxGeometry relative="1" as="geometry" />
        </mxCell>
        <mxCell id="-Kv3foAz8kiBN0xPjySN-62" style="edgeStyle=orthogonalEdgeStyle;rounded=0;orthogonalLoop=1;jettySize=auto;html=1;exitX=0.5;exitY=1;exitDx=0;exitDy=0;entryX=0.5;entryY=0;entryDx=0;entryDy=0;" edge="1" parent="1" source="-Kv3foAz8kiBN0xPjySN-50" target="-Kv3foAz8kiBN0xPjySN-54">
          <mxGeometry relative="1" as="geometry" />
        </mxCell>
        <mxCell id="-Kv3foAz8kiBN0xPjySN-50" value="Utility Functions" style="rounded=0;whiteSpace=wrap;html=1;" vertex="1" parent="1">
          <mxGeometry x="442" y="1040" width="176" height="80" as="geometry" />
        </mxCell>
        <mxCell id="-Kv3foAz8kiBN0xPjySN-51" value="readFileInput" style="rounded=0;whiteSpace=wrap;html=1;" vertex="1" parent="1">
          <mxGeometry x="860" y="1200" width="120" height="60" as="geometry" />
        </mxCell>
        <mxCell id="-Kv3foAz8kiBN0xPjySN-52" value="trim" style="rounded=0;whiteSpace=wrap;html=1;" vertex="1" parent="1">
          <mxGeometry x="385" y="1200" width="120" height="60" as="geometry" />
        </mxCell>
        <mxCell id="-Kv3foAz8kiBN0xPjySN-53" value="stripQuotes" style="rounded=0;whiteSpace=wrap;html=1;" vertex="1" parent="1">
          <mxGeometry x="220" y="1200" width="120" height="60" as="geometry" />
        </mxCell>
        <mxCell id="-Kv3foAz8kiBN0xPjySN-54" value="getFullPath" style="rounded=0;whiteSpace=wrap;html=1;" vertex="1" parent="1">
          <mxGeometry x="70" y="1200" width="120" height="60" as="geometry" />
        </mxCell>
        <mxCell id="-Kv3foAz8kiBN0xPjySN-55" value="printRow" style="rounded=0;whiteSpace=wrap;html=1;" vertex="1" parent="1">
          <mxGeometry x="560" y="1200" width="120" height="60" as="geometry" />
        </mxCell>
        <mxCell id="-Kv3foAz8kiBN0xPjySN-56" value="processCommand" style="rounded=0;whiteSpace=wrap;html=1;" vertex="1" parent="1">
          <mxGeometry x="710" y="1200" width="120" height="60" as="geometry" />
        </mxCell>
      </root>
    </mxGraphModel>
  </diagram>
</mxfile>
